<svg width="24" height="24" viewBox="0 0 24 24" fill="none" xmlns="http://www.w3.org/2000/svg">
<path d="M11.4286 5.14288H6.28571C5.67951 5.14288 5.09812 5.3837 4.66947 5.81235C4.24082 6.24101 4 6.82239 4 7.4286V17.7143C4 18.3205 4.24082 18.9019 4.66947 19.3306C5.09812 19.7592 5.67951 20 6.28571 20H17.7143C18.3205 20 18.9019 19.7592 19.3305 19.3306C19.7592 18.9019 20 18.3205 20 17.7143V12.5715" stroke="#1E1E1E" stroke-linecap="round" stroke-linejoin="round"/>
<path d="M17.7151 6.28571L18.8043 7.42857M20.0008 3.96228C20.3061 4.27704 20.4751 4.69927 20.4715 5.1377C20.4679 5.57612 20.2918 5.99549 19.9814 6.30514L12.0008 14.2857L8.57227 15.4286L9.71512 12L17.7003 3.94743C17.9811 3.66478 18.3567 3.4962 18.7546 3.47425C19.1524 3.4523 19.5443 3.57853 19.8546 3.82857L20.0008 3.96228Z" stroke="#1E1E1E" stroke-linecap="round" stroke-linejoin="round"/>
</svg>
