<svg width="24" height="24" viewBox="0 0 24 24" fill="none" xmlns="http://www.w3.org/2000/svg">
<path d="M11.9997 21.327C11.1164 21.327 10.3697 21.022 9.7597 20.412C9.15037 19.8027 8.8457 19.0563 8.8457 18.173C8.8457 17.3837 9.0977 16.698 9.6017 16.116C10.1057 15.5347 10.7384 15.185 11.4997 15.067V12.5H7.6157C7.17104 12.5 6.7907 12.3417 6.4747 12.025C6.1587 11.7083 6.00037 11.3283 5.9997 10.885V8.90401H4.4037C4.17437 8.90401 3.98237 8.82668 3.8277 8.67201C3.67304 8.51734 3.5957 8.32534 3.5957 8.09601V3.91201C3.5957 3.67467 3.67304 3.47934 3.8277 3.32601C3.98237 3.17268 4.17437 3.09601 4.4037 3.09601H8.5887C8.82537 3.09601 9.02037 3.17334 9.1737 3.32801C9.32704 3.48268 9.4037 3.67468 9.4037 3.90401V8.08901C9.4037 8.32568 9.32637 8.52068 9.1717 8.67401C9.01637 8.82734 8.82437 8.90401 8.5957 8.90401H6.9997V10.884C6.9997 11.064 7.05737 11.2117 7.1727 11.327C7.28804 11.4423 7.4357 11.5 7.6157 11.5H16.3847C16.564 11.5 16.7114 11.4423 16.8267 11.327C16.942 11.2117 16.9997 11.0643 16.9997 10.885V8.85501C16.2384 8.73767 15.6057 8.38834 15.1017 7.80701C14.5977 7.22568 14.3457 6.54001 14.3457 5.75001C14.3457 4.86734 14.6507 4.12068 15.2607 3.51001C15.87 2.90067 16.6167 2.59601 17.5007 2.59601C18.3847 2.59601 19.1307 2.90101 19.7387 3.51101C20.3487 4.12101 20.6537 4.86734 20.6537 5.75001C20.6537 6.54001 20.4017 7.22568 19.8977 7.80701C19.3937 8.38834 18.761 8.73801 17.9997 8.85601V10.885C17.9997 11.329 17.8414 11.709 17.5247 12.025C17.208 12.341 16.828 12.4993 16.3847 12.5H12.4997V15.067C13.261 15.185 13.8937 15.535 14.3977 16.117C14.9017 16.6983 15.1537 17.3837 15.1537 18.173C15.1537 19.0563 14.8487 19.803 14.2387 20.413C13.6287 21.0223 12.882 21.327 11.9987 21.327M17.5037 7.90401C18.0997 7.90401 18.607 7.69334 19.0257 7.27201C19.4444 6.85067 19.6537 6.34201 19.6537 5.74601C19.6537 5.15001 19.443 4.64267 19.0217 4.22401C18.6004 3.80534 18.0917 3.59601 17.4957 3.59601C16.8997 3.59601 16.3924 3.80668 15.9737 4.22801C15.555 4.64934 15.3457 5.15801 15.3457 5.75401C15.3457 6.35001 15.5564 6.85734 15.9777 7.27601C16.399 7.69468 16.9077 7.90401 17.5037 7.90401ZM4.5957 7.90401H8.4037V4.09601H4.5957V7.90401ZM12.0037 20.327C12.5997 20.327 13.107 20.1163 13.5257 19.695C13.9444 19.2737 14.1537 18.765 14.1537 18.169C14.1537 17.573 13.943 17.0657 13.5217 16.647C13.1004 16.2283 12.5917 16.019 11.9957 16.019C11.3997 16.019 10.8924 16.2297 10.4737 16.651C10.055 17.0723 9.8457 17.581 9.8457 18.177C9.8457 18.773 10.0564 19.2803 10.4777 19.699C10.899 20.1177 11.4077 20.327 12.0037 20.327Z" fill="#1E1E1E"/>
</svg>
