<svg width="32" height="32" viewBox="0 0 32 32" fill="none" xmlns="http://www.w3.org/2000/svg">
<path d="M29.0733 13.3887H27.9993V13.3333H15.9993V18.6667H23.5347C22.4353 21.7713 19.4813 24 15.9993 24C11.5813 24 7.99935 20.418 7.99935 16C7.99935 11.582 11.5813 8 15.9993 8C18.0387 8 19.894 8.76933 21.3067 10.026L25.078 6.25467C22.6967 4.03533 19.5113 2.66667 15.9993 2.66667C8.63602 2.66667 2.66602 8.63667 2.66602 16C2.66602 23.3633 8.63602 29.3333 15.9993 29.3333C23.3627 29.3333 29.3327 23.3633 29.3327 16C29.3327 15.106 29.2407 14.2333 29.0733 13.3887Z" fill="#FFC107"/>
<path d="M4.20312 9.794L8.58379 13.0067C9.76912 10.072 12.6398 8 15.9991 8C18.0385 8 19.8938 8.76933 21.3065 10.026L25.0778 6.25467C22.6965 4.03533 19.5111 2.66667 15.9991 2.66667C10.8778 2.66667 6.43646 5.558 4.20312 9.794Z" fill="#FF3D00"/>
<path d="M16.0009 29.3333C19.4449 29.3333 22.5742 28.0153 24.9402 25.872L20.8135 22.38C19.4301 23.4327 17.7392 24.0019 16.0009 24C12.5329 24 9.58819 21.7887 8.47886 18.7027L4.13086 22.0527C6.33753 26.3707 10.8189 29.3333 16.0009 29.3333Z" fill="#4CAF50"/>
<path d="M29.074 13.3887H28V13.3333H16V18.6667H23.5353C23.0095 20.1443 22.0622 21.4354 20.8107 22.3807L20.8127 22.3793L24.9393 25.8713C24.6473 26.1367 29.3333 22.6667 29.3333 16C29.3333 15.106 29.2413 14.2333 29.074 13.3887Z" fill="#1976D2"/>
</svg>
