<svg width="24" height="24" viewBox="0 0 24 24" fill="none" xmlns="http://www.w3.org/2000/svg">
<path d="M15.0605 9.82999C15.6243 9.64232 16.2337 9.64232 16.7975 9.82999C17.1655 9.95299 17.4695 10.168 17.7645 10.426C18.0465 10.674 18.3665 11.005 18.7495 11.401C19.2068 11.8763 19.6648 12.351 20.1235 12.825C20.5715 13.287 20.7515 13.775 20.7495 14.427C20.7435 16.086 20.7085 17.224 20.2325 18.157C19.7769 19.0505 19.0502 19.7768 18.1565 20.232C16.8115 20.918 15.0915 20.75 13.6335 20.75H10.3675C9.27548 20.75 8.40948 20.75 7.71248 20.693C6.99848 20.635 6.39548 20.513 5.84448 20.233C4.95062 19.7776 4.22389 19.0508 3.76848 18.157C3.47348 17.578 3.35848 16.948 3.29848 16.181C3.21048 15.021 4.19448 14.082 4.95148 13.319C5.25848 13.009 5.58248 12.749 5.98448 12.601C6.59439 12.3779 7.26357 12.3779 7.87348 12.601C8.27548 12.749 8.59948 13.009 8.90648 13.319C9.20448 13.619 9.53848 14.019 9.94248 14.504C9.97748 14.547 10.0325 14.587 10.0835 14.534L13.1085 11.401C13.4925 11.005 13.8115 10.674 14.0935 10.426C14.3885 10.168 14.6935 9.95299 15.0605 9.82999ZM15.0835 11.553C14.8535 11.755 14.5765 12.041 14.1665 12.466L11.1625 15.576C11.0084 15.7357 10.8223 15.8611 10.6165 15.9442C10.4106 16.0272 10.1896 16.0659 9.96778 16.0578C9.74598 16.0497 9.52837 15.9949 9.32914 15.8971C9.12991 15.7992 8.95353 15.6605 8.81148 15.49C8.38048 14.974 8.08748 14.623 7.84148 14.376C7.60148 14.133 7.46148 14.048 7.35848 14.01C7.08114 13.9085 6.77682 13.9085 6.49948 14.01C6.39648 14.048 6.25748 14.133 6.01648 14.376C5.64648 14.748 5.31948 15.163 4.98448 15.566C4.82348 15.759 4.77948 15.861 4.79748 16.106C4.84748 16.762 4.94448 17.161 5.10448 17.476C5.41604 18.0874 5.91311 18.5844 6.52448 18.896C6.82948 19.051 7.21448 19.147 7.83448 19.198C8.46448 19.249 9.26848 19.25 10.4005 19.25H13.6005C14.7925 19.25 16.3655 19.462 17.4765 18.896C18.0878 18.5844 18.5849 18.0874 18.8965 17.476C19.1785 16.921 19.2425 16.173 19.2495 14.422C19.2505 14.148 19.2085 14.036 19.0115 13.833L17.6915 12.466C17.2815 12.041 17.0055 11.756 16.7745 11.553C16.2595 11.101 15.6205 11.081 15.0835 11.553Z" fill="#1E1E1E"/>
<path d="M10.367 3.25H13.633C14.725 3.25 15.591 3.25 16.288 3.307C17.002 3.365 17.605 3.487 18.157 3.767C19.0506 4.22284 19.777 4.94992 20.232 5.844C20.513 6.394 20.635 6.998 20.693 7.712C20.75 8.409 20.75 9.275 20.75 10.367V13.633C20.75 14.725 20.75 15.591 20.693 16.288C20.635 17.002 20.513 17.605 20.233 18.157C19.7772 19.0506 19.0501 19.777 18.156 20.232C17.606 20.513 17.002 20.635 16.288 20.693C15.591 20.75 14.725 20.75 13.633 20.75H10.367C9.275 20.75 8.409 20.75 7.712 20.693C6.998 20.635 6.395 20.513 5.844 20.233C4.95014 19.7776 4.22341 19.0509 3.768 18.157C3.487 17.605 3.365 17.002 3.307 16.288C3.25 15.591 3.25 14.725 3.25 13.633V10.367C3.25 9.275 3.25 8.409 3.307 7.712C3.365 6.998 3.487 6.395 3.767 5.844C4.22267 4.94999 4.94977 4.22324 5.844 3.768C6.394 3.487 6.998 3.365 7.712 3.307C8.409 3.25 9.275 3.25 10.367 3.25ZM7.834 4.802C7.214 4.852 6.829 4.949 6.524 5.104C5.91263 5.41556 5.41556 5.91263 5.104 6.524C4.949 6.829 4.853 7.214 4.802 7.834C4.751 8.464 4.75 9.268 4.75 10.4V13.6C4.75 14.733 4.75 15.537 4.802 16.166C4.852 16.786 4.949 17.171 5.104 17.476C5.41556 18.0874 5.91263 18.5844 6.524 18.896C6.829 19.051 7.214 19.147 7.834 19.198C8.464 19.249 9.268 19.25 10.4 19.25H13.6C14.733 19.25 15.537 19.25 16.166 19.198C16.786 19.148 17.171 19.051 17.476 18.896C18.0874 18.5844 18.5844 18.0874 18.896 17.476C19.051 17.171 19.147 16.786 19.198 16.166C19.249 15.536 19.25 14.732 19.25 13.6V10.4C19.25 9.268 19.25 8.463 19.198 7.834C19.148 7.214 19.051 6.829 18.896 6.524C18.5844 5.91263 18.0874 5.41556 17.476 5.104C17.171 4.949 16.786 4.853 16.166 4.802C15.536 4.751 14.732 4.75 13.6 4.75H10.4C9.268 4.75 8.463 4.75 7.834 4.802Z" fill="#1E1E1E"/>
<path d="M10 7.75C9.66848 7.75 9.35054 7.8817 9.11612 8.11612C8.8817 8.35054 8.75 8.66848 8.75 9C8.75 9.33152 8.8817 9.64946 9.11612 9.88388C9.35054 10.1183 9.66848 10.25 10 10.25C10.3315 10.25 10.6495 10.1183 10.8839 9.88388C11.1183 9.64946 11.25 9.33152 11.25 9C11.25 8.66848 11.1183 8.35054 10.8839 8.11612C10.6495 7.8817 10.3315 7.75 10 7.75ZM7.25 9C7.25 8.27065 7.53973 7.57118 8.05546 7.05546C8.57118 6.53973 9.27065 6.25 10 6.25C10.7293 6.25 11.4288 6.53973 11.9445 7.05546C12.4603 7.57118 12.75 8.27065 12.75 9C12.75 9.72935 12.4603 10.4288 11.9445 10.9445C11.4288 11.4603 10.7293 11.75 10 11.75C9.27065 11.75 8.57118 11.4603 8.05546 10.9445C7.53973 10.4288 7.25 9.72935 7.25 9Z" fill="#1E1E1E"/>
</svg>
