<svg width="24" height="24" viewBox="0 0 24 24" fill="none" xmlns="http://www.w3.org/2000/svg">
<path d="M11.9998 20.4L11.6158 19.968C11.3758 19.728 5.75977 13.104 5.75977 9.12001C5.75977 5.66401 8.54377 2.88 11.9998 2.88C15.4558 2.88 18.2398 5.66401 18.2398 9.12001C18.2398 13.104 12.6238 19.728 12.3838 20.016L11.9998 20.4ZM11.9998 3.84C9.07177 3.84 6.71977 6.19201 6.71977 9.12001C6.71977 12.192 10.7518 17.376 11.9998 18.912C13.2478 17.376 17.2798 12.192 17.2798 9.12001C17.2798 6.19201 14.9278 3.84 11.9998 3.84Z" fill="#1E1E1E"/>
<path d="M11.9996 11.52C10.6556 11.52 9.59961 10.464 9.59961 9.12C9.59961 7.776 10.6556 6.72 11.9996 6.72C13.3436 6.72 14.3996 7.776 14.3996 9.12C14.3996 10.464 13.3436 11.52 11.9996 11.52ZM11.9996 7.68C11.1836 7.68 10.5596 8.304 10.5596 9.12C10.5596 9.936 11.1836 10.56 11.9996 10.56C12.8156 10.56 13.4396 9.936 13.4396 9.12C13.4396 8.304 12.8156 7.68 11.9996 7.68Z" fill="#1E1E1E"/>
</svg>
