<svg width="24" height="24" viewBox="0 0 24 24" fill="none" xmlns="http://www.w3.org/2000/svg">
<path d="M22 12C22 6.477 17.523 2 12 2C6.477 2 2 6.477 2 12C2 17.523 6.477 22 12 22C17.523 22 22 17.523 22 12Z" stroke="#1E1E1E" stroke-width="1.5" stroke-linecap="round" stroke-linejoin="round"/>
<path d="M20 5.699C19.065 5.766 17.868 6.129 17.038 7.203C15.538 9.143 14.039 9.306 13.039 8.659C11.539 7.689 12.8 6.116 11.04 5.262C9.893 4.705 9.733 3.19 10.372 2M2 11C2.763 11.662 3.83 12.268 5.089 12.268C7.689 12.268 8.209 12.765 8.209 14.752C8.209 16.739 8.209 16.739 8.729 18.229C9.067 19.199 9.185 20.167 8.511 21M22 13.452C21.113 12.942 20 12.731 18.873 13.54C16.718 15.09 15.231 13.806 14.562 15.089C13.577 16.977 17.096 17.57 14 22" stroke="#1E1E1E" stroke-width="1.5" stroke-linecap="round" stroke-linejoin="round"/>
</svg>
