<svg width="28" height="28" viewBox="0 0 28 28" fill="none" xmlns="http://www.w3.org/2000/svg">
<path fill-rule="evenodd" clip-rule="evenodd" d="M3.83908 3.86049C3.67743 3.79253 3.49909 3.77472 3.3272 3.80935C3.1553 3.84398 2.99777 3.92946 2.87504 4.0547C2.75231 4.17995 2.67004 4.33918 2.63891 4.51174C2.60777 4.68431 2.6292 4.86225 2.70042 5.02249L6.30892 13.125H15.1662C15.3983 13.125 15.6209 13.2172 15.785 13.3813C15.9491 13.5454 16.0412 13.7679 16.0412 14C16.0412 14.2321 15.9491 14.4546 15.785 14.6187C15.6209 14.7828 15.3983 14.875 15.1662 14.875H6.30892L2.70042 22.9775C2.6292 23.1377 2.60777 23.3157 2.63891 23.4882C2.67004 23.6608 2.75231 23.82 2.87504 23.9453C2.99777 24.0705 3.1553 24.156 3.3272 24.1906C3.49909 24.2253 3.67743 24.2074 3.83908 24.1395L26.0057 14.8062C26.1643 14.7393 26.2996 14.6271 26.3947 14.4837C26.4898 14.3403 26.5406 14.1721 26.5406 14C26.5406 13.8279 26.4898 13.6597 26.3947 13.5163C26.2996 13.3729 26.1643 13.2607 26.0057 13.1938L3.83908 3.86049Z" fill="#E9E9E9"/>
</svg>
