<svg width="24" height="24" viewBox="0 0 24 24" fill="none" xmlns="http://www.w3.org/2000/svg">
<path d="M20.3296 3.67C20.1405 3.48217 19.9032 3.35012 19.6438 3.28837C19.3845 3.22663 19.1132 3.23757 18.8596 3.32L4.22964 8.2C3.95831 8.28597 3.71854 8.45043 3.54062 8.67259C3.3627 8.89476 3.25461 9.16466 3.23 9.44822C3.20539 9.73178 3.26537 10.0163 3.40235 10.2658C3.53933 10.5153 3.74718 10.7186 3.99964 10.85L10.0696 13.85L13.0696 19.94C13.1902 20.1784 13.3747 20.3785 13.6025 20.518C13.8304 20.6575 14.0925 20.7309 14.3596 20.73H14.4596C14.7457 20.7089 15.0189 20.6023 15.2436 20.424C15.4683 20.2456 15.6341 20.0038 15.7196 19.73L20.6696 5.14C20.758 4.88793 20.773 4.61594 20.7128 4.3557C20.6526 4.09545 20.5197 3.85766 20.3296 3.67ZM4.84964 9.58L17.6196 5.32L10.5296 12.41L4.84964 9.58ZM14.4296 19.15L11.5896 13.47L18.6796 6.38L14.4296 19.15Z" fill="#1E1E1E"/>
</svg>
