<svg width="20" height="20" viewBox="0 0 20 20" fill="none" xmlns="http://www.w3.org/2000/svg">
<path d="M18 10C18 7.87827 17.1571 5.84344 15.6569 4.34315C14.1566 2.84285 12.1217 2 10 2C7.87827 2 5.84344 2.84285 4.34315 4.34315C2.84285 5.84344 2 7.87827 2 10C2 12.1217 2.84285 14.1566 4.34315 15.6569C5.84344 17.1571 7.87827 18 10 18C12.1217 18 14.1566 17.1571 15.6569 15.6569C17.1571 14.1566 18 12.1217 18 10ZM3 10C3 9.08075 3.18106 8.1705 3.53284 7.32122C3.88463 6.47194 4.40024 5.70026 5.05025 5.05025C5.70026 4.40024 6.47194 3.88463 7.32122 3.53284C8.1705 3.18106 9.08075 3 10 3C10.9193 3 11.8295 3.18106 12.6788 3.53284C13.5281 3.88463 14.2997 4.40024 14.9497 5.05025C15.5998 5.70026 16.1154 6.47194 16.4672 7.32122C16.8189 8.1705 17 9.08075 17 10C17 11.8565 16.2625 13.637 14.9497 14.9497C13.637 16.2625 11.8565 17 10 17C8.14348 17 6.36301 16.2625 5.05025 14.9497C3.7375 13.637 3 11.8565 3 10ZM13.5 8.5C13.5 8.23478 13.3946 7.98043 13.2071 7.79289C13.0196 7.60536 12.7652 7.5 12.5 7.5C12.2348 7.5 11.9804 7.60536 11.7929 7.79289C11.6054 7.98043 11.5 8.23478 11.5 8.5C11.5 8.76522 11.6054 9.01957 11.7929 9.20711C11.9804 9.39464 12.2348 9.5 12.5 9.5C12.7652 9.5 13.0196 9.39464 13.2071 9.20711C13.3946 9.01957 13.5 8.76522 13.5 8.5ZM8.5 8.5C8.5 8.23478 8.39464 7.98043 8.20711 7.79289C8.01957 7.60536 7.76522 7.5 7.5 7.5C7.23478 7.5 6.98043 7.60536 6.79289 7.79289C6.60536 7.98043 6.5 8.23478 6.5 8.5C6.5 8.76522 6.60536 9.01957 6.79289 9.20711C6.98043 9.39464 7.23478 9.5 7.5 9.5C7.76522 9.5 8.01957 9.39464 8.20711 9.20711C8.39464 9.01957 8.5 8.76522 8.5 8.5ZM6.889 12.515C6.8477 12.4639 6.79674 12.4215 6.73904 12.3901C6.68133 12.3587 6.61801 12.339 6.55268 12.3321C6.48735 12.3251 6.4213 12.3311 6.3583 12.3498C6.2953 12.3684 6.23658 12.3992 6.1855 12.4405C6.13442 12.4818 6.09197 12.5328 6.06058 12.5905C6.02919 12.6482 6.00947 12.7115 6.00255 12.7768C5.99563 12.8421 6.00165 12.9082 6.02026 12.9712C6.03886 13.0342 6.0697 13.0929 6.111 13.144C6.57983 13.7238 7.1724 14.1913 7.84529 14.5125C8.51819 14.8336 9.2544 15.0002 10 15C11.57 15 12.973 14.275 13.889 13.144C13.9304 13.0929 13.9613 13.0342 13.9799 12.9712C13.9986 12.9081 14.0047 12.842 13.9978 12.7767C13.9909 12.7113 13.9713 12.6479 13.9399 12.5902C13.9085 12.5324 13.8661 12.4814 13.815 12.44C13.7639 12.3986 13.7052 12.3677 13.6422 12.3491C13.5791 12.3304 13.513 12.3243 13.4477 12.3312C13.3823 12.3381 13.3189 12.3577 13.2612 12.3891C13.2034 12.4205 13.1524 12.4629 13.111 12.514C12.7361 12.978 12.2621 13.3523 11.7238 13.6094C11.1855 13.8665 10.5965 14 10 14C9.40354 14.0001 8.8146 13.8668 8.27632 13.6098C7.73803 13.3529 7.26403 12.9788 6.889 12.515Z" fill="#ACACAC"/>
</svg>
