<svg width="24" height="24" viewBox="0 0 24 24" fill="none" xmlns="http://www.w3.org/2000/svg">
<path d="M11.2152 11.345C10.5229 11.345 9.84625 11.1397 9.27068 10.7551C8.69511 10.3705 8.2465 9.82391 7.98159 9.18436C7.71669 8.54482 7.64738 7.84109 7.78242 7.16216C7.91747 6.48322 8.25082 5.85958 8.7403 5.3701C9.22978 4.88061 9.85342 4.54727 10.5324 4.41222C11.2113 4.27718 11.915 4.34649 12.5546 4.61139C13.1941 4.8763 13.7407 5.3249 14.1253 5.90048C14.5099 6.47605 14.7152 7.15274 14.7152 7.84497C14.7152 8.77323 14.3464 9.66347 13.69 10.3198C13.0337 10.9762 12.1434 11.345 11.2152 11.345ZM11.2152 5.38497C10.7207 5.38497 10.2374 5.53159 9.82625 5.8063C9.41512 6.081 9.09469 6.47145 8.90547 6.92826C8.71626 7.38508 8.66675 7.88775 8.76321 8.3727C8.85967 8.85765 9.09778 9.30311 9.44741 9.65274C9.79704 10.0024 10.2425 10.2405 10.7274 10.3369C11.2124 10.4334 11.7151 10.3839 12.1719 10.1947C12.6287 10.0055 13.0191 9.68502 13.2938 9.2739C13.5686 8.86278 13.7152 8.37943 13.7152 7.88497C13.7152 7.55667 13.6505 7.23158 13.5249 6.92826C13.3992 6.62495 13.2151 6.34935 12.9829 6.11721C12.7508 5.88506 12.4752 5.70091 12.1719 5.57527C11.8686 5.44964 11.5435 5.38497 11.2152 5.38497ZM14.0002 11.95C11.2944 11.3407 8.46359 11.634 5.94017 12.785C5.59312 12.9508 5.3003 13.2117 5.09582 13.5375C4.89134 13.8632 4.78361 14.2404 4.78517 14.625V17.6C4.78517 17.6656 4.79811 17.7307 4.82323 17.7913C4.84836 17.852 4.88519 17.9071 4.93162 17.9535C4.97805 18 5.03317 18.0368 5.09383 18.0619C5.15449 18.087 5.21951 18.1 5.28517 18.1C5.35083 18.1 5.41585 18.087 5.47651 18.0619C5.53718 18.0368 5.5923 18 5.63873 17.9535C5.68516 17.9071 5.72199 17.852 5.74711 17.7913C5.77224 17.7307 5.78517 17.6656 5.78517 17.6V14.625C5.78082 14.4303 5.83338 14.2386 5.93641 14.0734C6.03944 13.9082 6.18846 13.7767 6.36517 13.695C7.88526 12.9929 9.54081 12.6328 11.2152 12.64C12.1533 12.6389 13.0883 12.7497 14.0002 12.97V11.95ZM14.0702 16.705H17.1402V17.405H14.0702V16.705Z" fill="#1E1E1E"/>
<path d="M19.585 13.735H17V14.735H19.085V18.92H12V14.735H15.15V14.945C15.15 15.0776 15.2027 15.2048 15.2964 15.2985C15.3902 15.3923 15.5174 15.445 15.65 15.445C15.7826 15.445 15.9098 15.3923 16.0036 15.2985C16.0973 15.2048 16.15 15.0776 16.15 14.945V13C16.15 12.8674 16.0973 12.7402 16.0036 12.6464C15.9098 12.5526 15.7826 12.5 15.65 12.5C15.5174 12.5 15.3902 12.5526 15.2964 12.6464C15.2027 12.7402 15.15 12.8674 15.15 13V13.735H11.5C11.3674 13.735 11.2402 13.7876 11.1464 13.8814C11.0527 13.9752 11 14.1024 11 14.235V19.42C11 19.5526 11.0527 19.6798 11.1464 19.7735C11.2402 19.8673 11.3674 19.92 11.5 19.92H19.585C19.7176 19.92 19.8448 19.8673 19.9386 19.7735C20.0323 19.6798 20.085 19.5526 20.085 19.42V14.235C20.085 14.1024 20.0323 13.9752 19.9386 13.8814C19.8448 13.7876 19.7176 13.735 19.585 13.735Z" fill="#1E1E1E"/>
</svg>
